# xmcd
#
# Track frame offsets:
#	150
#	40388
#	55976
#	69274
#	79509
#	94448
#	109258
#	130531
#	142659
#	154135
#	168171
#	188347
#	201392
#	216437
#	229539
#	246532
#	261599
#	275582
#	285958
#	296393
#	308789
#	320406
#
# Disc length: 4495 seconds
#
# Revision: 1
# Processed by: cddbd v1.5PL3 Copyright (c) Steve Scherf et al.
# Submitted via: audiograbber 1.83.01
#
DISCID=40118d16
DTITLE=Jerry Lee Lewis - Mercury Smashes CD 08
DYEAR=1900
DGENRE=
TTITLE0=Slippin' And Slidin'
TTITLE1=From A Jack To A King (Blues Version)
TTITLE2=From A Jack To A King (Country Version)
TTITLE3=After The Fool You've Made Of Me
TTITLE4=The Closest Thing To You
TTITLE5=I Can't Keep My Hands Off Of You
TTITLE6=The One Rose That's Left In My Heart
TTITLE7=Wedding Bells
TTITLE8=The Fifties
TTITLE9=No One Will Ever Know 
TTITLE10=Only Love Can Get You In My Door
TTITLE11=The Old Country Church
TTITLE12=Harbor Lights
TTITLE13=Jerry Lee's Rock 'n' Roll Revival Show
TTITLE14=I Sure Miss Those Good Old Times
TTITLE15=Let's Put It Back Together Again
TTITLE16=Country Memories
TTITLE17=As Long As We Live
TTITLE18=Jealous Heart
TTITLE19=(You'd Think By Now) I'd Be Over You
TTITLE20=Come On In
TTITLE21=Who's Sorry Now
EXTD=
EXTT0=
EXTT1=
EXTT2=
EXTT3=
EXTT4=
EXTT5=
EXTT6=
EXTT7=
EXTT8=
EXTT9=
EXTT10=
EXTT11=
EXTT12=
EXTT13=
EXTT14=
EXTT15=
EXTT16=
EXTT17=
EXTT18=
EXTT19=
EXTT20=
EXTT21=
PLAYORDER=
